<svg width="24" height="24" viewBox="0 0 24 24" fill="none" xmlns="http://www.w3.org/2000/svg">
<path d="M21.7949 13.9092L15.9697 19.79L13.2041 17L13.9004 16.2988L15.6152 18.0225L15.9707 18.3789L16.3252 18.0225L21.0996 13.21L21.7949 13.9092ZM11 13.5C11.3995 13.5 11.8563 13.5361 12.3604 13.6016L11.541 14.4209L11.0205 14.4004H11C9.44089 14.4004 7.85433 14.7811 6.65625 15.2432C6.05739 15.4741 5.53793 15.7328 5.1582 15.9863C4.9698 16.1121 4.79842 16.2473 4.66895 16.3906C4.55397 16.5179 4.40039 16.7295 4.40039 17V18.5996H10.8926L11.793 19.5H3.5V17C3.5 16.5186 3.73738 16.0599 4.21387 15.6201C4.69371 15.1773 5.38213 14.7883 6.18457 14.4668C7.79059 13.8234 9.7275 13.5 11 13.5ZM11 4.5C11.9283 4.5 12.8182 4.86901 13.4746 5.52539C14.131 6.18177 14.5 7.07174 14.5 8L14.4961 8.17383C14.4531 9.0388 14.0899 9.85932 13.4746 10.4746C12.8182 11.131 11.9283 11.5 11 11.5C10.0717 11.5 9.18177 11.131 8.52539 10.4746C7.86901 9.81823 7.5 8.92826 7.5 8C7.5 7.07174 7.86901 6.18177 8.52539 5.52539C9.18177 4.86901 10.0717 4.5 11 4.5ZM11 5.5C10.337 5.5 9.70126 5.76358 9.23242 6.23242C8.76358 6.70126 8.5 7.33696 8.5 8C8.5 8.66304 8.76358 9.29874 9.23242 9.76758C9.70126 10.2364 10.337 10.5 11 10.5C11.663 10.5 12.2987 10.2364 12.7676 9.76758C13.2364 9.29874 13.5 8.66304 13.5 8C13.5 7.33696 13.2364 6.70126 12.7676 6.23242C12.3573 5.82219 11.8194 5.56952 11.2471 5.5127L11 5.5Z" fill="#1B1B1B" stroke="#A1A1A1"/>
</svg>
