<svg width="24" height="24" viewBox="0 0 24 24" fill="none" xmlns="http://www.w3.org/2000/svg">
<mask id="path-1-inside-1_30996_2168" fill="white">
<path d="M12.0008 8C13.0617 8 14.0791 8.42143 14.8292 9.17157C15.5794 9.92172 16.0008 10.9391 16.0008 12C16.0008 13.0609 15.5794 14.0783 14.8292 14.8284C14.0791 15.5786 13.0617 16 12.0008 16C10.9399 16 9.92253 15.5786 9.17239 14.8284C8.42224 14.0783 8.00082 13.0609 8.00082 12C8.00082 10.9391 8.42224 9.92172 9.17239 9.17157C9.92253 8.42143 10.9399 8 12.0008 8ZM12.0008 10C11.4704 10 10.9617 10.2107 10.5866 10.5858C10.2115 10.9609 10.0008 11.4696 10.0008 12C10.0008 12.5304 10.2115 13.0391 10.5866 13.4142C10.9617 13.7893 11.4704 14 12.0008 14C12.5312 14 13.04 13.7893 13.415 13.4142C13.7901 13.0391 14.0008 12.5304 14.0008 12C14.0008 11.4696 13.7901 10.9609 13.415 10.5858C13.04 10.2107 12.5312 10 12.0008 10ZM10.0008 22C9.75082 22 9.54082 21.82 9.50082 21.58L9.13082 18.93C8.50082 18.68 7.96082 18.34 7.44082 17.94L4.95082 18.95C4.73082 19.03 4.46082 18.95 4.34082 18.73L2.34082 15.27C2.21082 15.05 2.27082 14.78 2.46082 14.63L4.57082 12.97L4.50082 12L4.57082 11L2.46082 9.37C2.27082 9.22 2.21082 8.95 2.34082 8.73L4.34082 5.27C4.46082 5.05 4.73082 4.96 4.95082 5.05L7.44082 6.05C7.96082 5.66 8.50082 5.32 9.13082 5.07L9.50082 2.42C9.54082 2.18 9.75082 2 10.0008 2H14.0008C14.2508 2 14.4608 2.18 14.5008 2.42L14.8708 5.07C15.5008 5.32 16.0408 5.66 16.5608 6.05L19.0508 5.05C19.2708 4.96 19.5408 5.05 19.6608 5.27L21.6608 8.73C21.7908 8.95 21.7308 9.22 21.5408 9.37L19.4308 11L19.5008 12L19.4308 13L21.5408 14.63C21.7308 14.78 21.7908 15.05 21.6608 15.27L19.6608 18.73C19.5408 18.95 19.2708 19.04 19.0508 18.95L16.5608 17.95C16.0408 18.34 15.5008 18.68 14.8708 18.93L14.5008 21.58C14.4608 21.82 14.2508 22 14.0008 22H10.0008ZM11.2508 4L10.8808 6.61C9.68082 6.86 8.62082 7.5 7.85082 8.39L5.44082 7.35L4.69082 8.65L6.80082 10.2C6.40082 11.37 6.40082 12.64 6.80082 13.8L4.68082 15.36L5.43082 16.66L7.86082 15.62C8.63082 16.5 9.68082 17.14 10.8708 17.38L11.2408 20H12.7608L13.1308 17.39C14.3208 17.14 15.3708 16.5 16.1408 15.62L18.5708 16.66L19.3208 15.36L17.2008 13.81C17.6008 12.64 17.6008 11.37 17.2008 10.2L19.3108 8.65L18.5608 7.35L16.1508 8.39C15.3808 7.5 14.3208 6.86 13.1208 6.62L12.7508 4H11.2508Z"/>
</mask>
<path d="M12.0008 8C13.0617 8 14.0791 8.42143 14.8292 9.17157C15.5794 9.92172 16.0008 10.9391 16.0008 12C16.0008 13.0609 15.5794 14.0783 14.8292 14.8284C14.0791 15.5786 13.0617 16 12.0008 16C10.9399 16 9.92253 15.5786 9.17239 14.8284C8.42224 14.0783 8.00082 13.0609 8.00082 12C8.00082 10.9391 8.42224 9.92172 9.17239 9.17157C9.92253 8.42143 10.9399 8 12.0008 8ZM12.0008 10C11.4704 10 10.9617 10.2107 10.5866 10.5858C10.2115 10.9609 10.0008 11.4696 10.0008 12C10.0008 12.5304 10.2115 13.0391 10.5866 13.4142C10.9617 13.7893 11.4704 14 12.0008 14C12.5312 14 13.04 13.7893 13.415 13.4142C13.7901 13.0391 14.0008 12.5304 14.0008 12C14.0008 11.4696 13.7901 10.9609 13.415 10.5858C13.04 10.2107 12.5312 10 12.0008 10ZM10.0008 22C9.75082 22 9.54082 21.82 9.50082 21.58L9.13082 18.93C8.50082 18.68 7.96082 18.34 7.44082 17.94L4.95082 18.95C4.73082 19.03 4.46082 18.95 4.34082 18.73L2.34082 15.27C2.21082 15.05 2.27082 14.78 2.46082 14.63L4.57082 12.97L4.50082 12L4.57082 11L2.46082 9.37C2.27082 9.22 2.21082 8.95 2.34082 8.73L4.34082 5.27C4.46082 5.05 4.73082 4.96 4.95082 5.05L7.44082 6.05C7.96082 5.66 8.50082 5.32 9.13082 5.07L9.50082 2.42C9.54082 2.18 9.75082 2 10.0008 2H14.0008C14.2508 2 14.4608 2.18 14.5008 2.42L14.8708 5.07C15.5008 5.32 16.0408 5.66 16.5608 6.05L19.0508 5.05C19.2708 4.96 19.5408 5.05 19.6608 5.27L21.6608 8.73C21.7908 8.95 21.7308 9.22 21.5408 9.37L19.4308 11L19.5008 12L19.4308 13L21.5408 14.63C21.7308 14.78 21.7908 15.05 21.6608 15.27L19.6608 18.73C19.5408 18.95 19.2708 19.04 19.0508 18.95L16.5608 17.95C16.0408 18.34 15.5008 18.68 14.8708 18.93L14.5008 21.58C14.4608 21.82 14.2508 22 14.0008 22H10.0008ZM11.2508 4L10.8808 6.61C9.68082 6.86 8.62082 7.5 7.85082 8.39L5.44082 7.35L4.69082 8.65L6.80082 10.2C6.40082 11.37 6.40082 12.64 6.80082 13.8L4.68082 15.36L5.43082 16.66L7.86082 15.62C8.63082 16.5 9.68082 17.14 10.8708 17.38L11.2408 20H12.7608L13.1308 17.39C14.3208 17.14 15.3708 16.5 16.1408 15.62L18.5708 16.66L19.3208 15.36L17.2008 13.81C17.6008 12.64 17.6008 11.37 17.2008 10.2L19.3108 8.65L18.5608 7.35L16.1508 8.39C15.3808 7.5 14.3208 6.86 13.1208 6.62L12.7508 4H11.2508Z" fill="#1B1B1B"/>
<path d="M16.0008 12H17.0008H16.0008ZM12.0008 16V17V16ZM8.00082 12H7.00082H8.00082ZM9.50082 21.58L8.51042 21.7183L8.51225 21.7314L8.51442 21.7444L9.50082 21.58ZM9.13082 18.93L10.1212 18.7917L10.0407 18.2152L9.49966 18.0005L9.13082 18.93ZM7.44082 17.94L8.05053 17.1474L7.59615 16.7979L7.06494 17.0133L7.44082 17.94ZM4.95082 18.95L5.29256 19.8898L5.30975 19.8835L5.32669 19.8767L4.95082 18.95ZM4.34082 18.73L5.21871 18.2511L5.21278 18.2403L5.20658 18.2296L4.34082 18.73ZM2.34082 15.27L3.20662 14.7695L3.20174 14.7613L2.34082 15.27ZM2.46082 14.63L1.8425 13.8441L1.84117 13.8451L2.46082 14.63ZM4.57082 12.97L5.18913 13.7559L5.60644 13.4276L5.56822 12.898L4.57082 12.97ZM4.50082 12L3.50326 11.9302L3.49829 12.0011L3.50341 12.072L4.50082 12ZM4.57082 11L5.56838 11.0698L5.60575 10.5359L5.18216 10.2086L4.57082 11ZM2.46082 9.37L1.84114 10.1549L1.84948 10.1614L2.46082 9.37ZM2.34082 8.73L3.20178 9.23875L3.20658 9.23044L2.34082 8.73ZM4.34082 5.27L5.20658 5.77044L5.21278 5.75972L5.21871 5.74885L4.34082 5.27ZM4.95082 5.05L4.57218 5.97557L4.57814 5.97796L4.95082 5.05ZM7.44082 6.05L7.06814 6.97796L7.59049 7.18774L8.04082 6.85L7.44082 6.05ZM9.13082 5.07L9.49966 5.99949L10.0407 5.78479L10.1212 5.20828L9.13082 5.07ZM9.50082 2.42L8.51442 2.2556L8.51225 2.26863L8.51042 2.28172L9.50082 2.42ZM14.5008 2.42L15.4912 2.28172L15.4894 2.26863L15.4872 2.2556L14.5008 2.42ZM14.8708 5.07L13.8804 5.20828L13.9609 5.78479L14.502 5.99949L14.8708 5.07ZM16.5608 6.05L15.9608 6.85L16.4111 7.18774L16.9335 6.97796L16.5608 6.05ZM19.0508 5.05L19.4235 5.97798L19.4294 5.97555L19.0508 5.05ZM19.6608 5.27L18.7829 5.74885L18.7889 5.75972L18.795 5.77044L19.6608 5.27ZM21.6608 8.73L20.795 9.23047L20.7999 9.23873L21.6608 8.73ZM21.5408 9.37L22.1522 10.1614L22.1605 10.1549L21.5408 9.37ZM19.4308 11L18.8195 10.2086L18.3959 10.5359L18.4333 11.0698L19.4308 11ZM19.5008 12L20.4984 12.0698L20.5033 12L20.4984 11.9302L19.5008 12ZM19.4308 13L18.4333 12.9302L18.3959 13.4641L18.8195 13.7914L19.4308 13ZM21.5408 14.63L22.1605 13.8451L22.1522 13.8386L21.5408 14.63ZM21.6608 15.27L20.7999 14.7612L20.795 14.7696L21.6608 15.27ZM19.6608 18.73L18.795 18.2296L18.7889 18.2403L18.7829 18.2511L19.6608 18.73ZM19.0508 18.95L19.4295 18.0244L19.4235 18.022L19.0508 18.95ZM16.5608 17.95L16.9335 17.022L16.4111 16.8123L15.9608 17.15L16.5608 17.95ZM14.8708 18.93L14.502 18.0005L13.9609 18.2152L13.8804 18.7917L14.8708 18.93ZM14.5008 21.58L15.4872 21.7444L15.4894 21.7314L15.4912 21.7183L14.5008 21.58ZM11.2508 4V3H10.3826L10.2607 3.85964L11.2508 4ZM10.8808 6.61L11.0848 7.58898L11.7723 7.44574L11.8709 6.75036L10.8808 6.61ZM7.85082 8.39L7.4546 9.30816L8.12753 9.59855L8.60707 9.04428L7.85082 8.39ZM5.44082 7.35L5.83703 6.43184L5.01956 6.07907L4.57463 6.85028L5.44082 7.35ZM4.69082 8.65L3.82463 8.15028L3.37719 8.92584L4.09879 9.45592L4.69082 8.65ZM6.80082 10.2L7.74705 10.5235L7.98456 9.82876L7.39284 9.39408L6.80082 10.2ZM6.80082 13.8L7.3935 14.6054L7.986 14.1694L7.74619 13.474L6.80082 13.8ZM4.68082 15.36L4.08814 14.5546L3.36756 15.0848L3.81463 15.8597L4.68082 15.36ZM5.43082 16.66L4.56463 17.1597L5.00821 17.9286L5.82428 17.5793L5.43082 16.66ZM7.86082 15.62L8.61339 14.9615L8.1351 14.4149L7.46735 14.7007L7.86082 15.62ZM10.8708 17.38L11.861 17.2402L11.7621 16.5396L11.0685 16.3997L10.8708 17.38ZM11.2408 20L10.2506 20.1398L10.3721 21H11.2408V20ZM12.7608 20V21H13.6291L13.7509 20.1404L12.7608 20ZM13.1308 17.39L12.9252 16.4114L12.2391 16.5555L12.1407 17.2496L13.1308 17.39ZM16.1408 15.62L16.5343 14.7007L15.8665 14.4149L15.3882 14.9615L16.1408 15.62ZM18.5708 16.66L18.1774 17.5793L18.9934 17.9286L19.437 17.1597L18.5708 16.66ZM19.3208 15.36L20.187 15.8597L20.6355 15.0824L19.911 14.5527L19.3208 15.36ZM17.2008 13.81L16.2546 13.4865L16.0165 14.1829L16.6106 14.6173L17.2008 13.81ZM17.2008 10.2L16.6088 9.39408L16.0171 9.82876L16.2546 10.5235L17.2008 10.2ZM19.3108 8.65L19.9028 9.45592L20.6244 8.92584L20.177 8.15028L19.3108 8.65ZM18.5608 7.35L19.427 6.85028L18.9821 6.07907L18.1646 6.43184L18.5608 7.35ZM16.1508 8.39L15.3946 9.04428L15.8741 9.59855L16.547 9.30816L16.1508 8.39ZM13.1208 6.62L12.1306 6.75983L12.2297 7.46159L12.9247 7.60058L13.1208 6.62ZM12.7508 4L13.741 3.86017L13.6195 3H12.7508V4ZM12.0008 9C12.7965 9 13.5595 9.31607 14.1221 9.87868L15.5364 8.46447C14.5987 7.52678 13.3269 7 12.0008 7V9ZM14.1221 9.87868C14.6847 10.4413 15.0008 11.2044 15.0008 12H17.0008C17.0008 10.6739 16.474 9.40215 15.5364 8.46447L14.1221 9.87868ZM15.0008 12C15.0008 12.7956 14.6847 13.5587 14.1221 14.1213L15.5364 15.5355C16.474 14.5979 17.0008 13.3261 17.0008 12H15.0008ZM14.1221 14.1213C13.5595 14.6839 12.7965 15 12.0008 15V17C13.3269 17 14.5987 16.4732 15.5364 15.5355L14.1221 14.1213ZM12.0008 15C11.2052 15 10.4421 14.6839 9.8795 14.1213L8.46528 15.5355C9.40296 16.4732 10.6747 17 12.0008 17V15ZM9.8795 14.1213C9.31689 13.5587 9.00082 12.7956 9.00082 12H7.00082C7.00082 13.3261 7.5276 14.5979 8.46528 15.5355L9.8795 14.1213ZM9.00082 12C9.00082 11.2044 9.31689 10.4413 9.8795 9.87868L8.46528 8.46447C7.5276 9.40215 7.00082 10.6739 7.00082 12H9.00082ZM9.8795 9.87868C10.4421 9.31607 11.2052 9 12.0008 9V7C10.6747 7 9.40296 7.52678 8.46528 8.46447L9.8795 9.87868ZM12.0008 9C11.2052 9 10.4421 9.31607 9.8795 9.87868L11.2937 11.2929C11.4812 11.1054 11.7356 11 12.0008 11V9ZM9.8795 9.87868C9.31689 10.4413 9.00082 11.2043 9.00082 12H11.0008C11.0008 11.7348 11.1062 11.4804 11.2937 11.2929L9.8795 9.87868ZM9.00082 12C9.00082 12.7957 9.31689 13.5587 9.8795 14.1213L11.2937 12.7071C11.1062 12.5196 11.0008 12.2652 11.0008 12H9.00082ZM9.8795 14.1213C10.4421 14.6839 11.2052 15 12.0008 15V13C11.7356 13 11.4812 12.8946 11.2937 12.7071L9.8795 14.1213ZM12.0008 15C12.7965 15 13.5595 14.6839 14.1221 14.1213L12.7079 12.7071C12.5204 12.8946 12.266 13 12.0008 13V15ZM14.1221 14.1213C14.6847 13.5587 15.0008 12.7957 15.0008 12H13.0008C13.0008 12.2652 12.8955 12.5196 12.7079 12.7071L14.1221 14.1213ZM15.0008 12C15.0008 11.2043 14.6847 10.4413 14.1221 9.87868L12.7079 11.2929C12.8955 11.4804 13.0008 11.7348 13.0008 12H15.0008ZM14.1221 9.87868C13.5595 9.31607 12.7965 9 12.0008 9V11C12.266 11 12.5204 11.1054 12.7079 11.2929L14.1221 9.87868ZM10.0008 21C10.2376 21 10.4465 21.1713 10.4872 21.4156L8.51442 21.7444C8.63513 22.4687 9.26407 23 10.0008 23V21ZM10.4912 21.4417L10.1212 18.7917L8.14042 19.0683L8.51042 21.7183L10.4912 21.4417ZM9.49966 18.0005C8.98026 17.7944 8.52112 17.5094 8.05053 17.1474L6.83111 18.7326C7.40051 19.1706 8.02137 19.5656 8.76197 19.8595L9.49966 18.0005ZM7.06494 17.0133L4.57494 18.0233L5.32669 19.8767L7.81669 18.8667L7.06494 17.0133ZM4.60907 18.0102C4.71955 17.97 4.8316 17.9721 4.93099 18.006C5.0358 18.0417 5.14792 18.1214 5.21871 18.2511L3.46292 19.2089C3.84672 19.9125 4.66316 20.1187 5.29256 19.8898L4.60907 18.0102ZM5.20658 18.2296L3.20658 14.7696L1.47505 15.7704L3.47505 19.2304L5.20658 18.2296ZM3.20174 14.7613C3.33607 14.9886 3.26802 15.2668 3.08046 15.4149L1.84117 13.8451C1.27361 14.2932 1.08556 15.1114 1.47989 15.7787L3.20174 14.7613ZM3.07913 15.4159L5.18913 13.7559L3.9525 12.1841L1.8425 13.8441L3.07913 15.4159ZM5.56822 12.898L5.49822 11.928L3.50341 12.072L3.57341 13.042L5.56822 12.898ZM5.49838 12.0698L5.56838 11.0698L3.57326 10.9302L3.50326 11.9302L5.49838 12.0698ZM5.18216 10.2086L3.07216 8.57863L1.84948 10.1614L3.95948 11.7914L5.18216 10.2086ZM3.08046 8.58512C3.26802 8.73319 3.33607 9.01141 3.20174 9.23873L1.47989 8.22127C1.08556 8.88859 1.27361 9.70681 1.84117 10.1549L3.08046 8.58512ZM3.20658 9.23044L5.20658 5.77044L3.47505 4.76956L1.47505 8.22956L3.20658 9.23044ZM5.21871 5.74885C5.09233 5.98056 4.81891 6.07648 4.57218 5.97555L5.32945 4.12445C4.64272 3.84352 3.8293 4.11944 3.46292 4.79115L5.21871 5.74885ZM4.57814 5.97796L7.06814 6.97796L7.81349 5.12204L5.32349 4.12204L4.57814 5.97796ZM8.04082 6.85C8.51778 6.49228 8.97925 6.206 9.49966 5.99949L8.76197 4.14051C8.02238 4.434 7.40386 4.82772 6.84082 5.25L8.04082 6.85ZM10.1212 5.20828L10.4912 2.55828L8.51042 2.28172L8.14042 4.93172L10.1212 5.20828ZM10.4872 2.5844C10.4465 2.82865 10.2376 3 10.0008 3V1C9.26407 1 8.63513 1.53135 8.51442 2.2556L10.4872 2.5844ZM10.0008 3H14.0008V1H10.0008V3ZM14.0008 3C13.7641 3 13.5551 2.82865 13.5144 2.5844L15.4872 2.2556C15.3665 1.53135 14.7376 1 14.0008 1V3ZM13.5104 2.55828L13.8804 5.20828L15.8612 4.93172L15.4912 2.28172L13.5104 2.55828ZM14.502 5.99949C15.0224 6.206 15.4839 6.49228 15.9608 6.85L17.1608 5.25C16.5978 4.82772 15.9793 4.434 15.2397 4.14051L14.502 5.99949ZM16.9335 6.97796L19.4235 5.97796L18.6781 4.12204L16.1881 5.12204L16.9335 6.97796ZM19.4294 5.97555C19.1827 6.07648 18.9093 5.98056 18.7829 5.74885L20.5387 4.79115C20.1723 4.11944 19.3589 3.84352 18.6722 4.12445L19.4294 5.97555ZM18.795 5.77044L20.795 9.23044L22.5266 8.22956L20.5266 4.76956L18.795 5.77044ZM20.7999 9.23873C20.6656 9.01141 20.7336 8.7332 20.9212 8.58512L22.1605 10.1549C22.728 9.7068 22.9161 8.88858 22.5217 8.22127L20.7999 9.23873ZM20.9295 8.57863L18.8195 10.2086L20.0422 11.7914L22.1522 10.1614L20.9295 8.57863ZM18.4333 11.0698L18.5033 12.0698L20.4984 11.9302L20.4284 10.9302L18.4333 11.0698ZM18.5033 11.9302L18.4333 12.9302L20.4284 13.0698L20.4984 12.0698L18.5033 11.9302ZM18.8195 13.7914L20.9295 15.4214L22.1522 13.8386L20.0422 12.2086L18.8195 13.7914ZM20.9212 15.4149C20.7336 15.2668 20.6656 14.9886 20.7999 14.7613L22.5217 15.7787C22.9161 15.1114 22.728 14.2932 22.1605 13.8451L20.9212 15.4149ZM20.795 14.7696L18.795 18.2296L20.5266 19.2304L22.5266 15.7704L20.795 14.7696ZM18.7829 18.2511C18.9093 18.0194 19.1827 17.9235 19.4294 18.0245L18.6722 19.8755C19.3589 20.1565 20.1723 19.8806 20.5387 19.2089L18.7829 18.2511ZM19.4235 18.022L16.9335 17.022L16.1881 18.878L18.6781 19.878L19.4235 18.022ZM15.9608 17.15C15.4839 17.5077 15.0224 17.794 14.502 18.0005L15.2397 19.8595C15.9793 19.566 16.5978 19.1723 17.1608 18.75L15.9608 17.15ZM13.8804 18.7917L13.5104 21.4417L15.4912 21.7183L15.8612 19.0683L13.8804 18.7917ZM13.5144 21.4156C13.5551 21.1713 13.7641 21 14.0008 21V23C14.7376 23 15.3665 22.4687 15.4872 21.7444L13.5144 21.4156ZM14.0008 21H10.0008V23H14.0008V21ZM10.2607 3.85964L9.89072 6.46964L11.8709 6.75036L12.2409 4.14036L10.2607 3.85964ZM10.6769 5.63102C9.25829 5.92656 8.00548 6.68284 7.09457 7.73572L8.60707 9.04428C9.23615 8.31716 10.1033 7.79344 11.0848 7.58898L10.6769 5.63102ZM8.24703 7.47184L5.83703 6.43184L5.0446 8.26816L7.4546 9.30816L8.24703 7.47184ZM4.57463 6.85028L3.82463 8.15028L5.557 9.14972L6.307 7.84972L4.57463 6.85028ZM4.09879 9.45592L6.20879 11.0059L7.39284 9.39408L5.28284 7.84408L4.09879 9.45592ZM5.85459 9.8765C5.3832 11.2553 5.3823 12.7539 5.85544 14.126L7.74619 13.474C7.41934 12.5261 7.41843 11.4847 7.74705 10.5235L5.85459 9.8765ZM6.20814 12.9946L4.08814 14.5546L5.2735 16.1654L7.3935 14.6054L6.20814 12.9946ZM3.81463 15.8597L4.56463 17.1597L6.297 16.1603L5.547 14.8603L3.81463 15.8597ZM5.82428 17.5793L8.25428 16.5393L7.46735 14.7007L5.03735 15.7407L5.82428 17.5793ZM7.10824 16.2785C8.01498 17.3148 9.25642 18.0745 10.6731 18.3603L11.0685 16.3997C10.1052 16.2055 9.24665 15.6852 8.61339 14.9615L7.10824 16.2785ZM9.88064 17.5198L10.2506 20.1398L12.231 19.8602L11.861 17.2402L9.88064 17.5198ZM11.2408 21H12.7608V19H11.2408V21ZM13.7509 20.1404L14.1209 17.5304L12.1407 17.2496L11.7707 19.8596L13.7509 20.1404ZM13.3364 18.3686C14.747 18.0723 15.9864 17.3151 16.8934 16.2785L15.3882 14.9615C14.7553 15.6849 13.8946 16.2077 12.9252 16.4114L13.3364 18.3686ZM15.7474 16.5393L18.1774 17.5793L18.9643 15.7407L16.5343 14.7007L15.7474 16.5393ZM19.437 17.1597L20.187 15.8597L18.4546 14.8603L17.7046 16.1603L19.437 17.1597ZM19.911 14.5527L17.791 13.0027L16.6106 14.6173L18.7306 16.1673L19.911 14.5527ZM18.147 14.1335C18.6187 12.7538 18.6187 11.2562 18.147 9.8765L16.2546 10.5235C16.5829 11.4838 16.5829 12.5262 16.2546 13.4865L18.147 14.1335ZM17.7928 11.0059L19.9028 9.45592L18.7188 7.84408L16.6088 9.39408L17.7928 11.0059ZM20.177 8.15028L19.427 6.85028L17.6946 7.84972L18.4446 9.14972L20.177 8.15028ZM18.1646 6.43184L15.7546 7.47184L16.547 9.30816L18.957 8.26816L18.1646 6.43184ZM16.9071 7.73572C15.9964 6.68313 14.7415 5.92434 13.3169 5.63942L12.9247 7.60058C13.9001 7.79566 14.7652 8.31687 15.3946 9.04428L16.9071 7.73572ZM14.111 6.48017L13.741 3.86017L11.7606 4.13983L12.1306 6.75983L14.111 6.48017ZM12.7508 3H11.2508V5H12.7508V3Z" fill="#A1A1A1" mask="url(#path-1-inside-1_30996_2168)"/>
</svg>
