<svg width="166" height="28" viewBox="0 0 166 28" fill="none" xmlns="http://www.w3.org/2000/svg">
<g clip-path="url(#clip0_30848_15448)">
<path d="M163.22 12.0228C164.478 12.0228 165.496 11.0028 165.496 9.74469C165.496 8.48662 164.478 7.4668 163.22 7.4668C161.964 7.4668 160.945 8.48662 160.945 9.74469C160.945 11.0028 161.964 12.0228 163.22 12.0228Z" fill="#0B3B2D"/>
<path d="M43.4474 20.681C42.4354 20.681 41.5027 20.5223 40.6492 20.205C39.8079 19.8754 39.0702 19.4116 38.4362 18.8136C37.8143 18.2156 37.3267 17.5137 36.973 16.7082C36.6317 15.9027 36.4609 15.0177 36.4609 14.0536C36.4609 13.0894 36.6317 12.2045 36.973 11.399C37.3267 10.5934 37.8205 9.89162 38.4545 9.2936C39.0885 8.69552 39.8323 8.23788 40.6858 7.92048C41.5393 7.59095 42.4781 7.42619 43.5023 7.42619C44.6363 7.42619 45.6543 7.61541 46.5566 7.99372C47.4711 8.37209 48.2392 8.92133 48.8611 9.64142L46.959 11.399C46.4956 10.9108 45.9896 10.5507 45.441 10.3188C44.8923 10.0747 44.2949 9.95266 43.6487 9.95266C43.0268 9.95266 42.4598 10.0503 41.9478 10.2456C41.4357 10.4409 40.9905 10.7216 40.6126 11.0877C40.2469 11.4539 39.9603 11.8871 39.753 12.3876C39.558 12.8881 39.4604 13.4433 39.4604 14.0536C39.4604 14.6516 39.558 15.2009 39.753 15.7013C39.9603 16.2017 40.2469 16.6411 40.6126 17.0194C40.9905 17.3856 41.4295 17.6663 41.9295 17.8616C42.4415 18.0569 43.0024 18.1545 43.6121 18.1545C44.1973 18.1545 44.7643 18.063 45.313 17.8799C45.8738 17.6846 46.4164 17.3611 46.9407 16.9096L48.6233 19.0516C47.9284 19.5764 47.1175 19.9791 46.1909 20.2599C45.2764 20.5406 44.3619 20.681 43.4474 20.681ZM45.9165 18.6671V13.8522H48.6233V19.0516L45.9165 18.6671ZM50.4428 20.4613V6.87695H53.2959V20.4613H50.4428ZM59.8944 20.6077C58.8458 20.6077 57.913 20.3881 57.0961 19.9487C56.2914 19.5093 55.6513 18.9113 55.1758 18.1545C54.7124 17.3856 54.4807 16.5129 54.4807 15.5365C54.4807 14.5479 54.7124 13.6753 55.1758 12.9185C55.6513 12.1496 56.2914 11.5516 57.0961 11.1244C57.913 10.685 58.8458 10.4653 59.8944 10.4653C60.9308 10.4653 61.8575 10.685 62.6745 11.1244C63.4915 11.5516 64.1311 12.1434 64.5947 12.9002C65.0582 13.6569 65.2897 14.5357 65.2897 15.5365C65.2897 16.5129 65.0582 17.3856 64.5947 18.1545C64.1311 18.9113 63.4915 19.5093 62.6745 19.9487C61.8575 20.3881 60.9308 20.6077 59.8944 20.6077ZM59.8944 18.2644C60.3699 18.2644 60.7967 18.1545 61.1747 17.9348C61.5526 17.7151 61.8513 17.4039 62.0709 17.0011C62.2903 16.5862 62.4 16.0979 62.4 15.5365C62.4 14.9629 62.2903 14.4747 62.0709 14.0719C61.8513 13.6691 61.5526 13.3579 61.1747 13.1382C60.7967 12.9185 60.3699 12.8087 59.8944 12.8087C59.4189 12.8087 58.9921 12.9185 58.6142 13.1382C58.2362 13.3579 57.9313 13.6691 57.6997 14.0719C57.4802 14.4747 57.3705 14.9629 57.3705 15.5365C57.3705 16.0979 57.4802 16.5862 57.6997 17.0011C57.9313 17.4039 58.2362 17.7151 58.6142 17.9348C58.9921 18.1545 59.4189 18.2644 59.8944 18.2644ZM72.2816 20.6077C71.4155 20.6077 70.6719 20.4247 70.0503 20.0585C69.4281 19.6924 68.9527 19.137 68.6235 18.3925C68.2944 17.6357 68.1295 16.6837 68.1295 15.5365C68.1295 14.377 68.3 13.425 68.6416 12.6805C68.995 11.9361 69.4828 11.3807 70.1051 11.0145C70.7267 10.6484 71.4522 10.4653 72.2816 10.4653C73.2081 10.4653 74.0369 10.6728 74.7686 11.0877C75.5122 11.5027 76.0977 12.0885 76.5245 12.8453C76.9632 13.6021 77.1828 14.4991 77.1828 15.5365C77.1828 16.5617 76.9632 17.4527 76.5245 18.2094C76.0977 18.9662 75.5122 19.5581 74.7686 19.9853C74.0369 20.4002 73.2081 20.6077 72.2816 20.6077ZM66.4651 20.4613V6.87695H69.3186V12.6073L69.1356 15.5182L69.1904 18.4474V20.4613H66.4651ZM71.7875 18.2644C72.2629 18.2644 72.6835 18.1545 73.0494 17.9348C73.4277 17.7151 73.7264 17.4039 73.9454 17.0011C74.1775 16.5862 74.2932 16.0979 74.2932 15.5365C74.2932 14.9629 74.1775 14.4747 73.9454 14.0719C73.7264 13.6691 73.4277 13.3579 73.0494 13.1382C72.6835 12.9185 72.2629 12.8087 71.7875 12.8087C71.3122 12.8087 70.8853 12.9185 70.507 13.1382C70.1293 13.3579 69.8307 13.6691 69.611 14.0719C69.3914 14.4747 69.2819 14.9629 69.2819 15.5365C69.2819 16.0979 69.3914 16.5862 69.611 17.0011C69.8307 17.4039 70.1293 17.7151 70.507 17.9348C70.8853 18.1545 71.3122 18.2644 71.7875 18.2644ZM84.2357 20.4613V18.539L84.0528 18.1179V14.6761C84.0528 14.0657 83.8643 13.5897 83.4859 13.2481C83.1201 12.9063 82.5532 12.7354 81.7854 12.7354C81.2609 12.7354 80.7426 12.8209 80.2305 12.9917C79.7308 13.1504 79.304 13.3701 78.9506 13.6508L77.9264 11.6553C78.4627 11.2769 79.1086 10.9841 79.8646 10.7765C80.6206 10.569 81.3891 10.4653 82.1693 10.4653C83.6689 10.4653 84.8337 10.8193 85.6625 11.5271C86.4919 12.235 86.9063 13.3396 86.9063 14.8408V20.4613H84.2357ZM81.2366 20.6077C80.4682 20.6077 79.8099 20.4796 79.2611 20.2233C78.7129 19.9548 78.2923 19.5947 77.9992 19.1431C77.7067 18.6916 77.5605 18.185 77.5605 17.6236C77.5605 17.0377 77.7005 16.5251 77.9811 16.0857C78.2736 15.6464 78.7309 15.3046 79.3525 15.0605C79.9747 14.8042 80.7855 14.6761 81.7854 14.6761H84.4006V16.3421H82.0959C81.4251 16.3421 80.9622 16.4519 80.7059 16.6716C80.4619 16.8913 80.3406 17.1659 80.3406 17.4954C80.3406 17.8616 80.4806 18.1545 80.7612 18.3742C81.0537 18.5817 81.45 18.6854 81.9497 18.6854C82.4251 18.6854 82.8519 18.5756 83.2302 18.3559C83.6079 18.1241 83.8823 17.7884 84.0528 17.349L84.4921 18.6671C84.2849 19.3017 83.9066 19.7839 83.3584 20.1134C82.8096 20.443 82.1021 20.6077 81.2366 20.6077ZM88.7568 20.4613V6.87695H91.6097V20.4613H88.7568ZM93.7277 20.4613V7.6459H96.178L103.732 16.873H102.543V7.6459H105.469V20.4613H103.037L95.465 11.2342H96.654V20.4613H93.7277ZM112.248 20.6077C111.198 20.6077 110.266 20.3881 109.449 19.9487C108.645 19.5093 108.005 18.9113 107.529 18.1545C107.065 17.3856 106.834 16.5129 106.834 15.5365C106.834 14.5479 107.065 13.6753 107.529 12.9185C108.005 12.1496 108.645 11.5516 109.449 11.1244C110.266 10.685 111.198 10.4653 112.248 10.4653C113.284 10.4653 114.211 10.685 115.028 11.1244C115.844 11.5516 116.484 12.1434 116.948 12.9002C117.411 13.6569 117.643 14.5357 117.643 15.5365C117.643 16.5129 117.411 17.3856 116.948 18.1545C116.484 18.9113 115.844 19.5093 115.028 19.9487C114.211 20.3881 113.284 20.6077 112.248 20.6077ZM112.248 18.2644C112.723 18.2644 113.15 18.1545 113.528 17.9348C113.905 17.7151 114.204 17.4039 114.424 17.0011C114.644 16.5862 114.753 16.0979 114.753 15.5365C114.753 14.9629 114.644 14.4747 114.424 14.0719C114.204 13.6691 113.905 13.3579 113.528 13.1382C113.15 12.9185 112.723 12.8087 112.248 12.8087C111.772 12.8087 111.345 12.9185 110.967 13.1382C110.59 13.3579 110.284 13.6691 110.053 14.0719C109.833 14.4747 109.724 14.9629 109.724 15.5365C109.724 16.0979 109.833 16.5862 110.053 17.0011C110.284 17.4039 110.59 17.7151 110.967 17.9348C111.345 18.1545 111.772 18.2644 112.248 18.2644ZM131.42 10.4653C132.2 10.4653 132.889 10.624 133.487 10.9413C134.096 11.2464 134.571 11.7224 134.913 12.3693C135.266 13.0039 135.444 13.8217 135.444 14.8225V20.4613H132.59V15.2619C132.59 14.4685 132.426 13.8827 132.097 13.5044C131.768 13.1261 131.304 12.9368 130.707 12.9368C130.291 12.9368 129.921 13.0345 129.591 13.2297C129.262 13.4128 129.006 13.6936 128.823 14.0719C128.64 14.4502 128.549 14.9324 128.549 15.5182V20.4613H125.696V15.2619C125.696 14.4685 125.531 13.8827 125.202 13.5044C124.884 13.1261 124.427 12.9368 123.83 12.9368C123.415 12.9368 123.044 13.0345 122.715 13.2297C122.385 13.4128 122.129 13.6936 121.946 14.0719C121.763 14.4502 121.672 14.9324 121.672 15.5182V20.4613H118.819V10.6117H121.544V13.303L121.032 12.5157C121.373 11.8445 121.855 11.3379 122.477 10.9962C123.11 10.6423 123.83 10.4653 124.635 10.4653C125.536 10.4653 126.323 10.6971 126.994 11.161C127.676 11.6125 128.128 12.3082 128.348 13.2481L127.341 12.9734C127.671 12.2045 128.195 11.5942 128.914 11.1427C129.646 10.6911 130.481 10.4653 131.42 10.4653ZM143.305 20.4613V18.539L143.122 18.1179V14.6761C143.122 14.0657 142.933 13.5897 142.555 13.2481C142.189 12.9063 141.623 12.7354 140.854 12.7354C140.329 12.7354 139.812 12.8209 139.3 12.9917C138.8 13.1504 138.372 13.3701 138.019 13.6508L136.995 11.6553C137.531 11.2769 138.177 10.9841 138.934 10.7765C139.689 10.569 140.457 10.4653 141.238 10.4653C142.738 10.4653 143.902 10.8193 144.731 11.5271C145.56 12.235 145.975 13.3396 145.975 14.8408V20.4613H143.305ZM140.305 20.6077C139.538 20.6077 138.879 20.4796 138.33 20.2233C137.782 19.9548 137.361 19.5947 137.069 19.1431C136.776 18.6916 136.629 18.185 136.629 17.6236C136.629 17.0377 136.769 16.5251 137.05 16.0857C137.342 15.6464 137.8 15.3046 138.422 15.0605C139.044 14.8042 139.854 14.6761 140.854 14.6761H143.469V16.3421H141.165C140.494 16.3421 140.031 16.4519 139.775 16.6716C139.531 16.8913 139.409 17.1659 139.409 17.4954C139.409 17.8616 139.549 18.1545 139.83 18.3742C140.122 18.5817 140.519 18.6854 141.019 18.6854C141.494 18.6854 141.92 18.5756 142.299 18.3559C142.677 18.1241 142.951 17.7884 143.122 17.349L143.561 18.6671C143.354 19.3017 142.976 19.7839 142.427 20.1134C141.878 20.443 141.17 20.6077 140.305 20.6077ZM152.121 20.6077C151.195 20.6077 150.361 20.4002 149.616 19.9853C148.873 19.5581 148.281 18.9662 147.842 18.2094C147.416 17.4527 147.201 16.5617 147.201 15.5365C147.201 14.4991 147.416 13.6021 147.842 12.8453C148.281 12.0885 148.873 11.5027 149.616 11.0877C150.361 10.6728 151.195 10.4653 152.121 10.4653C152.951 10.4653 153.676 10.6484 154.298 11.0145C154.92 11.3807 155.402 11.9361 155.743 12.6805C156.085 13.425 156.255 14.377 156.255 15.5365C156.255 16.6837 156.091 17.6357 155.761 18.3925C155.432 19.137 154.956 19.6924 154.335 20.0585C153.726 20.4247 152.988 20.6077 152.121 20.6077ZM152.615 18.2644C153.079 18.2644 153.5 18.1545 153.877 17.9348C154.256 17.7151 154.554 17.4039 154.773 17.0011C155.006 16.5862 155.121 16.0979 155.121 15.5365C155.121 14.9629 155.006 14.4747 154.773 14.0719C154.554 13.6691 154.256 13.3579 153.877 13.1382C153.5 12.9185 153.079 12.8087 152.615 12.8087C152.14 12.8087 151.714 12.9185 151.335 13.1382C150.957 13.3579 150.653 13.6691 150.421 14.0719C150.201 14.4747 150.092 14.9629 150.092 15.5365C150.092 16.0979 150.201 16.5862 150.421 17.0011C150.653 17.4039 150.957 17.7151 151.335 17.9348C151.714 18.1545 152.14 18.2644 152.615 18.2644ZM155.194 20.4613V18.4474L155.249 15.5182L155.066 12.6073V6.87695H157.919V20.4613H155.194Z" fill="#0B3B2D"/>
<path fill-rule="evenodd" clip-rule="evenodd" d="M14.2281 0C21.9524 0 28.2141 6.26802 28.2141 14C28.2141 21.732 21.9524 28 14.2281 28C6.50392 28 0.242188 21.732 0.242188 14C0.242188 6.26802 6.50392 0 14.2281 0ZM13.7226 1.04761C12.1271 1.27238 10.6078 2.55575 9.42843 4.70218C9.08633 5.32478 8.77765 6.01262 8.50866 6.75534C10.1123 6.35189 11.8739 6.11409 13.7226 6.07731V1.04761ZM7.32662 7.09159C7.66113 6.04071 8.0703 5.07388 8.54257 4.21445C9.12721 3.15041 9.82105 2.23157 10.6027 1.52584C6.35181 2.76166 3.00108 6.11575 1.76649 10.371C2.4715 9.58844 3.38944 8.89392 4.45242 8.30872C5.31098 7.83602 6.27682 7.42635 7.32662 7.09159ZM6.99068 8.27475C6.58773 9.88002 6.35015 11.6434 6.3134 13.4939H1.28875C1.51329 11.8968 2.79538 10.376 4.93965 9.19551C5.56163 8.85304 6.24878 8.54404 6.99068 8.27475ZM7.32469 13.4939C7.36644 11.4744 7.65684 9.57836 8.13738 7.90316C9.81097 7.42212 11.7052 7.13135 13.7226 7.08954V9.27559C12.9699 11.2043 11.4348 12.7409 9.50795 13.4939H7.32469ZM6.3134 14.5061H1.28875C1.51329 16.1032 2.79538 17.6239 4.93965 18.8045C5.56163 19.147 6.24878 19.4559 6.99068 19.7253C6.58773 18.12 6.35015 16.3566 6.3134 14.5061ZM8.13738 20.0969C7.65684 18.4216 7.36644 16.5256 7.32469 14.5061H9.50795C11.4348 15.2591 12.9701 16.7957 13.7226 18.7245V20.9105C11.7052 20.8687 9.81097 20.5778 8.13738 20.0969ZM7.32662 20.9085C6.27682 20.5737 5.31098 20.164 4.45242 19.6913C3.38944 19.1061 2.4715 18.4115 1.76649 17.629C3.00108 21.8842 6.35181 25.2383 10.6027 26.4741C9.82105 25.7684 9.12721 24.8496 8.54257 23.7854C8.0703 22.9261 7.66113 21.9593 7.32662 20.9085ZM13.7226 26.9524C12.1271 26.7276 10.6078 25.4442 9.42843 23.2978C9.08633 22.6753 8.77765 21.9873 8.50866 21.2447C10.1123 21.6481 11.8739 21.8859 13.7226 21.9227V26.9524ZM17.8535 26.4741C18.6352 25.7684 19.3292 24.8496 19.9137 23.7854C20.3859 22.9261 20.7952 21.9593 21.1297 20.9085C22.1795 20.5737 23.1453 20.164 24.0039 19.6913C25.0668 19.1061 25.9848 18.4115 26.6897 17.629C25.4552 21.8842 22.1045 25.2383 17.8535 26.4741ZM19.9477 21.2447C19.6785 21.9873 19.3699 22.6753 19.0278 23.2978C17.8486 25.4442 16.3292 26.7276 14.7337 26.9524V21.9227C16.5824 21.8859 18.344 21.6481 19.9477 21.2447ZM21.4656 19.7253C22.2074 19.4559 22.8947 19.147 23.5167 18.8045C25.6609 17.6239 26.943 16.1032 27.1675 14.5061H22.1429C22.1061 16.3566 21.8686 18.12 21.4656 19.7253ZM21.1317 14.5061C21.09 16.5256 20.7994 18.4216 20.3189 20.0969C18.6453 20.5778 16.7512 20.8687 14.7337 20.9105V18.7261C15.486 16.7966 17.0215 15.2594 18.9489 14.5061H21.1317ZM22.1429 13.4939H27.1675C26.943 11.8968 25.6609 10.376 23.5167 9.19551C22.8947 8.85304 22.2074 8.54404 21.4656 8.27475C21.8686 9.88002 22.1061 11.6434 22.1429 13.4939ZM20.3189 7.90316C20.7994 9.57836 21.09 11.4744 21.1317 13.4939H18.9489C17.0215 12.7406 15.486 11.2034 14.7337 9.27397V7.08954C16.7512 7.13135 18.6453 7.42212 20.3189 7.90316ZM21.1297 7.09159C22.1795 7.42635 23.1453 7.83602 24.0039 8.30872C25.0668 8.89392 25.9848 9.58844 26.6897 10.371C25.4552 6.11575 22.1045 2.76166 17.8535 1.52584C18.6352 2.23157 19.3292 3.15041 19.9137 4.21445C20.3859 5.07388 20.7952 6.04071 21.1297 7.09159ZM14.7337 1.04761C16.3292 1.27238 17.8486 2.55575 19.0278 4.70218C19.3699 5.32479 19.6785 6.01262 19.9477 6.75534C18.344 6.35189 16.5824 6.11409 14.7337 6.07731V1.04761Z" fill="#0B3B2D"/>
</g>
<defs>
<clipPath id="clip0_30848_15448">
<rect width="165.511" height="28" fill="white" transform="translate(0.242188)"/>
</clipPath>
</defs>
</svg>
