<svg width="54" height="50" viewBox="0 0 54 50" fill="none" xmlns="http://www.w3.org/2000/svg">
<path d="M26.999 1.49891C27.118 1.49891 27.2348 1.52741 27.3398 1.58094L27.4404 1.64246C27.5364 1.7123 27.6145 1.80328 27.668 1.90809L27.7129 2.01746V2.01844L33.0068 18.3153L33.2314 19.0057H51.5C51.6202 19.0057 51.7379 19.0352 51.8438 19.0897L51.9453 19.1522C52.0418 19.2234 52.1191 19.3164 52.1719 19.4227L52.2168 19.5341C52.2642 19.687 52.2616 19.8516 52.209 20.0028C52.1695 20.1163 52.1029 20.2177 52.0166 20.2997L51.9238 20.3749L37.7002 30.12L37.0752 30.5477L37.3174 31.2645L42.8008 47.5106C42.8388 47.6233 42.8496 47.7436 42.832 47.8612C42.8145 47.9789 42.7685 48.0907 42.6992 48.1874C42.6473 48.2598 42.5832 48.3223 42.5098 48.372L42.4336 48.4179C42.3542 48.4587 42.2679 48.4844 42.1797 48.495L42.0908 48.5009H42.0889C41.9707 48.5013 41.8547 48.4733 41.75 48.4208L41.6494 48.3602L27.5859 38.1649L26.999 37.7391L26.4121 38.1649L12.3457 48.3632C12.2169 48.4566 12.0614 48.5063 11.9023 48.5057L11.7842 48.496C11.7066 48.4833 11.6314 48.4587 11.5615 48.4227L11.46 48.3593C11.3641 48.2885 11.2871 48.1963 11.2344 48.0907L11.1895 47.9813C11.1537 47.8676 11.1463 47.7472 11.166 47.6307L11.1943 47.5155L11.1953 47.5145L16.6807 31.2645L16.9229 30.5487L16.2988 30.12L2.08008 20.37V20.369L1.9873 20.2948C1.92968 20.2401 1.88144 20.1763 1.84375 20.1063L1.7959 19.9979C1.75642 19.8848 1.74426 19.7639 1.76074 19.6464L1.78711 19.5292C1.83428 19.3765 1.92914 19.2424 2.05762 19.1473C2.15394 19.0761 2.26569 19.0298 2.38281 19.0106L2.50195 19.0009H20.7676L20.9922 18.3095L26.2861 2.01844V2.01746C26.3228 1.90434 26.3855 1.80197 26.4688 1.71863L26.5586 1.64246C26.6867 1.54939 26.8407 1.49897 26.999 1.49891Z" stroke="#112211" stroke-width="2"/>
</svg>
